<svg width="20" height="20" viewBox="0 0 20 20" fill="none" xmlns="http://www.w3.org/2000/svg">
<g clip-path="url(#clip0_3901_68)">
<path d="M15 10.8334H10.8333V15C10.8333 15.4584 10.4583 15.8334 9.99996 15.8334C9.54163 15.8334 9.16663 15.4584 9.16663 15V10.8334H4.99996C4.54163 10.8334 4.16663 10.4584 4.16663 10C4.16663 9.54169 4.54163 9.16669 4.99996 9.16669H9.16663V5.00002C9.16663 4.54169 9.54163 4.16669 9.99996 4.16669C10.4583 4.16669 10.8333 4.54169 10.8333 5.00002V9.16669H15C15.4583 9.16669 15.8333 9.54169 15.8333 10C15.8333 10.4584 15.4583 10.8334 15 10.8334Z" fill="white"/>
</g>
<defs>
<clipPath id="clip0_3901_68">
<rect width="20" height="20" fill="white"/>
</clipPath>
</defs>
</svg>
