<svg width="20" height="20" viewBox="0 0 20 20" fill="none" xmlns="http://www.w3.org/2000/svg">
<g clip-path="url(#clip0_3901_40)">
<path fill-rule="evenodd" clip-rule="evenodd" d="M11.6667 5.83331C11.6667 4.4526 12.786 3.33331 14.1667 3.33331H15.8334C17.2142 3.33331 18.3334 4.4526 18.3334 5.83331V14.1666C18.3334 15.5474 17.2142 16.6666 15.8334 16.6666H4.16675C2.78604 16.6666 1.66675 15.5474 1.66675 14.1666V12.5C1.66675 11.1192 2.78604 9.99998 4.16675 9.99998H6.66675V9.16665C6.66675 7.78594 7.78604 6.66665 9.16675 6.66665H11.6667V5.83331ZM13.3334 15H15.8334C16.2937 15 16.6667 14.6269 16.6667 14.1666V5.83331C16.6667 5.37308 16.2937 4.99998 15.8334 4.99998H14.1667C13.7065 4.99998 13.3334 5.37308 13.3334 5.83331V15ZM11.6667 15V8.33331H9.16675C8.7065 8.33331 8.33342 8.7064 8.33342 9.16665V15H11.6667ZM6.66675 15V11.6666H4.16675C3.70651 11.6666 3.33341 12.0397 3.33341 12.5V14.1666C3.33341 14.6269 3.70651 15 4.16675 15H6.66675Z" fill="#505050"/>
</g>
<defs>
<clipPath id="clip0_3901_40">
<rect width="20" height="20" fill="white"/>
</clipPath>
</defs>
</svg>
